%TF.GenerationSoftware,KiCad,Pcbnew,9.0.0+dfsg-1*%
%TF.CreationDate,2025-04-08T21:11:35-05:00*%
%TF.ProjectId,pocket-bob,706f636b-6574-42d6-926f-622e6b696361,rev?*%
%TF.SameCoordinates,Original*%
%TF.FileFunction,Copper,L1,Top*%
%TF.FilePolarity,Positive*%
%FSLAX46Y46*%
G04 Gerber Fmt 4.6, Leading zero omitted, Abs format (unit mm)*
G04 Created by KiCad (PCBNEW 9.0.0+dfsg-1) date 2025-04-08 21:11:35*
%MOMM*%
%LPD*%
G01*
G04 APERTURE LIST*
G04 Aperture macros list*
%AMRoundRect*
0 Rectangle with rounded corners*
0 $1 Rounding radius*
0 $2 $3 $4 $5 $6 $7 $8 $9 X,Y pos of 4 corners*
0 Add a 4 corners polygon primitive as box body*
4,1,4,$2,$3,$4,$5,$6,$7,$8,$9,$2,$3,0*
0 Add four circle primitives for the rounded corners*
1,1,$1+$1,$2,$3*
1,1,$1+$1,$4,$5*
1,1,$1+$1,$6,$7*
1,1,$1+$1,$8,$9*
0 Add four rect primitives between the rounded corners*
20,1,$1+$1,$2,$3,$4,$5,0*
20,1,$1+$1,$4,$5,$6,$7,0*
20,1,$1+$1,$6,$7,$8,$9,0*
20,1,$1+$1,$8,$9,$2,$3,0*%
G04 Aperture macros list end*
%TA.AperFunction,SMDPad,CuDef*%
%ADD10RoundRect,0.135000X-0.135000X-0.185000X0.135000X-0.185000X0.135000X0.185000X-0.135000X0.185000X0*%
%TD*%
%TA.AperFunction,SMDPad,CuDef*%
%ADD11RoundRect,0.147500X0.147500X0.172500X-0.147500X0.172500X-0.147500X-0.172500X0.147500X-0.172500X0*%
%TD*%
%TA.AperFunction,SMDPad,CuDef*%
%ADD12RoundRect,0.147500X-0.147500X-0.172500X0.147500X-0.172500X0.147500X0.172500X-0.147500X0.172500X0*%
%TD*%
%TA.AperFunction,SMDPad,CuDef*%
%ADD13RoundRect,0.218750X-0.218750X-0.256250X0.218750X-0.256250X0.218750X0.256250X-0.218750X0.256250X0*%
%TD*%
%TA.AperFunction,SMDPad,CuDef*%
%ADD14RoundRect,0.135000X0.135000X0.185000X-0.135000X0.185000X-0.135000X-0.185000X0.135000X-0.185000X0*%
%TD*%
%TA.AperFunction,ComponentPad*%
%ADD15R,1.700000X1.700000*%
%TD*%
%TA.AperFunction,ComponentPad*%
%ADD16O,1.700000X1.700000*%
%TD*%
%TA.AperFunction,SMDPad,CuDef*%
%ADD17RoundRect,0.135000X-0.185000X0.135000X-0.185000X-0.135000X0.185000X-0.135000X0.185000X0.135000X0*%
%TD*%
%TA.AperFunction,ComponentPad*%
%ADD18R,1.500000X1.600000*%
%TD*%
%TA.AperFunction,ComponentPad*%
%ADD19C,1.600000*%
%TD*%
%TA.AperFunction,ComponentPad*%
%ADD20C,3.000000*%
%TD*%
%TA.AperFunction,SMDPad,CuDef*%
%ADD21RoundRect,0.150000X0.512500X0.150000X-0.512500X0.150000X-0.512500X-0.150000X0.512500X-0.150000X0*%
%TD*%
%TA.AperFunction,SMDPad,CuDef*%
%ADD22RoundRect,0.218750X0.256250X-0.218750X0.256250X0.218750X-0.256250X0.218750X-0.256250X-0.218750X0*%
%TD*%
%TA.AperFunction,SMDPad,CuDef*%
%ADD23RoundRect,0.225000X0.250000X-0.225000X0.250000X0.225000X-0.250000X0.225000X-0.250000X-0.225000X0*%
%TD*%
%TA.AperFunction,ViaPad*%
%ADD24C,0.600000*%
%TD*%
%TA.AperFunction,Conductor*%
%ADD25C,0.200000*%
%TD*%
%TA.AperFunction,Conductor*%
%ADD26C,0.508000*%
%TD*%
%TA.AperFunction,Conductor*%
%ADD27C,1.270000*%
%TD*%
%TA.AperFunction,Conductor*%
%ADD28C,0.406400*%
%TD*%
%TA.AperFunction,Conductor*%
%ADD29C,0.254000*%
%TD*%
G04 APERTURE END LIST*
D10*
%TO.P,R24,1*%
%TO.N,Net-(D24-A)*%
X118485000Y-81280000D03*
%TO.P,R24,2*%
%TO.N,/P2_11*%
X119505000Y-81280000D03*
%TD*%
%TO.P,R11,1*%
%TO.N,Net-(D11-A)*%
X62605000Y-93980000D03*
%TO.P,R11,2*%
%TO.N,/P1_21*%
X63625000Y-93980000D03*
%TD*%
%TO.P,R14,1*%
%TO.N,Net-(D14-A)*%
X62605000Y-101600000D03*
%TO.P,R14,2*%
%TO.N,/P1_27*%
X63625000Y-101600000D03*
%TD*%
D11*
%TO.P,D68,1,K*%
%TO.N,GND*%
X130635000Y-101600000D03*
%TO.P,D68,2,A*%
%TO.N,Net-(D68-A)*%
X129665000Y-101600000D03*
%TD*%
%TO.P,D56,1,K*%
%TO.N,GND*%
X130635000Y-71120000D03*
%TO.P,D56,2,A*%
%TO.N,Net-(D56-A)*%
X129665000Y-71120000D03*
%TD*%
D10*
%TO.P,R35,1*%
%TO.N,Net-(D35-A)*%
X118485000Y-109220000D03*
%TO.P,R35,2*%
%TO.N,/P2_33*%
X119505000Y-109220000D03*
%TD*%
D12*
%TO.P,D33,1,K*%
%TO.N,GND*%
X115995000Y-104140000D03*
%TO.P,D33,2,A*%
%TO.N,Net-(D33-A)*%
X116965000Y-104140000D03*
%TD*%
D13*
%TO.P,FB1,1*%
%TO.N,Net-(J7-Shield)*%
X44678500Y-80264000D03*
%TO.P,FB1,2*%
%TO.N,GND*%
X46253500Y-80264000D03*
%TD*%
D14*
%TO.P,R51,1*%
%TO.N,Net-(D51-A)*%
X72265000Y-104140000D03*
%TO.P,R51,2*%
%TO.N,/P1_30*%
X71245000Y-104140000D03*
%TD*%
D12*
%TO.P,D16,1,K*%
%TO.N,GND*%
X60115000Y-106680000D03*
%TO.P,D16,2,A*%
%TO.N,Net-(D16-A)*%
X61085000Y-106680000D03*
%TD*%
%TO.P,D12,1,K*%
%TO.N,GND*%
X60115000Y-96520000D03*
%TO.P,D12,2,A*%
%TO.N,Net-(D12-A)*%
X61085000Y-96520000D03*
%TD*%
D15*
%TO.P,J6,1,Pin_1*%
%TO.N,/VIN*%
X66040000Y-68580000D03*
D16*
%TO.P,J6,2,Pin_2*%
%TO.N,/USB1_DRVVBUS*%
X66040000Y-71120000D03*
%TO.P,J6,3,Pin_3*%
%TO.N,/USB1_VBUS*%
X66040000Y-73660000D03*
%TO.P,J6,4,Pin_4*%
%TO.N,/VIN_USB*%
X66040000Y-76200000D03*
%TO.P,J6,5,Pin_5*%
%TO.N,/USB1_D-*%
X66040000Y-78740000D03*
%TO.P,J6,6,Pin_6*%
%TO.N,/USB1_D+*%
X66040000Y-81280000D03*
%TO.P,J6,7,Pin_7*%
%TO.N,/P1_13*%
X66040000Y-83820000D03*
%TO.P,J6,8,Pin_8*%
%TO.N,GND*%
X66040000Y-86360000D03*
%TO.P,J6,9,Pin_9*%
%TO.N,/AGND*%
X66040000Y-88900000D03*
%TO.P,J6,10,Pin_10*%
%TO.N,/P1_19*%
X66040000Y-91440000D03*
%TO.P,J6,11,Pin_11*%
%TO.N,/P1_21*%
X66040000Y-93980000D03*
%TO.P,J6,12,Pin_12*%
%TO.N,/P1_23*%
X66040000Y-96520000D03*
%TO.P,J6,13,Pin_13*%
%TO.N,/P1_25*%
X66040000Y-99060000D03*
%TO.P,J6,14,Pin_14*%
%TO.N,/P1_27*%
X66040000Y-101600000D03*
%TO.P,J6,15,Pin_15*%
%TO.N,/P1_29*%
X66040000Y-104140000D03*
%TO.P,J6,16,Pin_16*%
%TO.N,/P1_31*%
X66040000Y-106680000D03*
%TO.P,J6,17,Pin_17*%
%TO.N,/P1_33*%
X66040000Y-109220000D03*
%TO.P,J6,18,Pin_18*%
%TO.N,/P1_35*%
X66040000Y-111760000D03*
%TD*%
D11*
%TO.P,D58,1,K*%
%TO.N,GND*%
X130635000Y-76200000D03*
%TO.P,D58,2,A*%
%TO.N,Net-(D58-A)*%
X129665000Y-76200000D03*
%TD*%
D10*
%TO.P,R18,1*%
%TO.N,Net-(D18-A)*%
X62605000Y-111760000D03*
%TO.P,R18,2*%
%TO.N,/P1_35*%
X63625000Y-111760000D03*
%TD*%
D17*
%TO.P,R3,1*%
%TO.N,GND*%
X56743600Y-89357200D03*
%TO.P,R3,2*%
%TO.N,/USB1_DRVVBUS*%
X56743600Y-90377200D03*
%TD*%
D14*
%TO.P,R58,1*%
%TO.N,Net-(D58-A)*%
X128145000Y-76200000D03*
%TO.P,R58,2*%
%TO.N,/P2_8*%
X127125000Y-76200000D03*
%TD*%
D10*
%TO.P,R15,1*%
%TO.N,Net-(D15-A)*%
X62605000Y-104140000D03*
%TO.P,R15,2*%
%TO.N,/P1_29*%
X63625000Y-104140000D03*
%TD*%
%TO.P,R25,1*%
%TO.N,Net-(D25-A)*%
X118485000Y-83820000D03*
%TO.P,R25,2*%
%TO.N,/VOUT*%
X119505000Y-83820000D03*
%TD*%
%TO.P,R13,1*%
%TO.N,Net-(D13-A)*%
X62605000Y-99060000D03*
%TO.P,R13,2*%
%TO.N,/P1_25*%
X63625000Y-99060000D03*
%TD*%
D14*
%TO.P,R70,1*%
%TO.N,Net-(D70-A)*%
X128145000Y-106680000D03*
%TO.P,R70,2*%
%TO.N,/P2_32*%
X127125000Y-106680000D03*
%TD*%
D10*
%TO.P,R20,1*%
%TO.N,Net-(D20-A)*%
X118485000Y-71120000D03*
%TO.P,R20,2*%
%TO.N,/P2_3*%
X119505000Y-71120000D03*
%TD*%
D12*
%TO.P,D22,1,K*%
%TO.N,GND*%
X115995000Y-76200000D03*
%TO.P,D22,2,A*%
%TO.N,Net-(D22-A)*%
X116965000Y-76200000D03*
%TD*%
D11*
%TO.P,D65,1,K*%
%TO.N,GND*%
X130635000Y-93980000D03*
%TO.P,D65,2,A*%
%TO.N,Net-(D65-A)*%
X129665000Y-93980000D03*
%TD*%
D14*
%TO.P,R65,1*%
%TO.N,Net-(D65-A)*%
X128145000Y-93980000D03*
%TO.P,R65,2*%
%TO.N,/P2_22*%
X127125000Y-93980000D03*
%TD*%
D12*
%TO.P,D19,1,K*%
%TO.N,GND*%
X115995000Y-68580000D03*
%TO.P,D19,2,A*%
%TO.N,Net-(D19-A)*%
X116965000Y-68580000D03*
%TD*%
D10*
%TO.P,R17,1*%
%TO.N,Net-(D17-A)*%
X62605000Y-109220000D03*
%TO.P,R17,2*%
%TO.N,/P1_33*%
X63625000Y-109220000D03*
%TD*%
D14*
%TO.P,R57,1*%
%TO.N,Net-(D57-A)*%
X128145000Y-73660000D03*
%TO.P,R57,2*%
%TO.N,/P2_6*%
X127125000Y-73660000D03*
%TD*%
%TO.P,R68,1*%
%TO.N,Net-(D68-A)*%
X128145000Y-101600000D03*
%TO.P,R68,2*%
%TO.N,/P2_28*%
X127125000Y-101600000D03*
%TD*%
D11*
%TO.P,D59,1,K*%
%TO.N,GND*%
X130635000Y-78740000D03*
%TO.P,D59,2,A*%
%TO.N,Net-(D59-A)*%
X129665000Y-78740000D03*
%TD*%
D15*
%TO.P,J3,1,Pin_1*%
%TO.N,/P2_2*%
X124460000Y-68580000D03*
D16*
%TO.P,J3,2,Pin_2*%
%TO.N,/P2_4*%
X124460000Y-71120000D03*
%TO.P,J3,3,Pin_3*%
%TO.N,/P2_6*%
X124460000Y-73660000D03*
%TO.P,J3,4,Pin_4*%
%TO.N,/P2_8*%
X124460000Y-76200000D03*
%TO.P,J3,5,Pin_5*%
%TO.N,/P2_10*%
X124460000Y-78740000D03*
%TO.P,J3,6,Pin_6*%
%TO.N,/PWR_BTN*%
X124460000Y-81280000D03*
%TO.P,J3,7,Pin_7*%
%TO.N,/VIN_BAT*%
X124460000Y-83820000D03*
%TO.P,J3,8,Pin_8*%
%TO.N,/BAT_TEMP*%
X124460000Y-86360000D03*
%TO.P,J3,9,Pin_9*%
%TO.N,/P2_18*%
X124460000Y-88900000D03*
%TO.P,J3,10,Pin_10*%
%TO.N,/P2_20*%
X124460000Y-91440000D03*
%TO.P,J3,11,Pin_11*%
%TO.N,/P2_22*%
X124460000Y-93980000D03*
%TO.P,J3,12,Pin_12*%
%TO.N,/P2_24*%
X124460000Y-96520000D03*
%TO.P,J3,13,Pin_13*%
%TO.N,/RESETn*%
X124460000Y-99060000D03*
%TO.P,J3,14,Pin_14*%
%TO.N,/P2_28*%
X124460000Y-101600000D03*
%TO.P,J3,15,Pin_15*%
%TO.N,/P2_30*%
X124460000Y-104140000D03*
%TO.P,J3,16,Pin_16*%
%TO.N,/P2_32*%
X124460000Y-106680000D03*
%TO.P,J3,17,Pin_17*%
%TO.N,/P2_34*%
X124460000Y-109220000D03*
%TO.P,J3,18,Pin_18*%
%TO.N,/P2_36*%
X124460000Y-111760000D03*
%TD*%
D11*
%TO.P,D42,1,K*%
%TO.N,GND*%
X74755000Y-81280000D03*
%TO.P,D42,2,A*%
%TO.N,Net-(D42-A)*%
X73785000Y-81280000D03*
%TD*%
D10*
%TO.P,R2,1*%
%TO.N,Net-(D2-A)*%
X62480000Y-83820000D03*
%TO.P,R2,2*%
%TO.N,/P1_13*%
X63500000Y-83820000D03*
%TD*%
D11*
%TO.P,D63,1,K*%
%TO.N,GND*%
X130635000Y-88900000D03*
%TO.P,D63,2,A*%
%TO.N,Net-(D63-A)*%
X129665000Y-88900000D03*
%TD*%
D12*
%TO.P,D27,1,K*%
%TO.N,GND*%
X115995000Y-88900000D03*
%TO.P,D27,2,A*%
%TO.N,Net-(D27-A)*%
X116965000Y-88900000D03*
%TD*%
D11*
%TO.P,D51,1,K*%
%TO.N,GND*%
X74755000Y-104140000D03*
%TO.P,D51,2,A*%
%TO.N,Net-(D51-A)*%
X73785000Y-104140000D03*
%TD*%
D10*
%TO.P,R1,1*%
%TO.N,Net-(D1-A)*%
X62605000Y-68580000D03*
%TO.P,R1,2*%
%TO.N,/VIN*%
X63625000Y-68580000D03*
%TD*%
D12*
%TO.P,D21,1,K*%
%TO.N,GND*%
X115995000Y-73660000D03*
%TO.P,D21,2,A*%
%TO.N,Net-(D21-A)*%
X116965000Y-73660000D03*
%TD*%
%TO.P,D31,1,K*%
%TO.N,GND*%
X115995000Y-99060000D03*
%TO.P,D31,2,A*%
%TO.N,Net-(D31-A)*%
X116965000Y-99060000D03*
%TD*%
D18*
%TO.P,J7,1,VBUS*%
%TO.N,Net-(J7-VBUS)*%
X47414000Y-86450000D03*
D19*
%TO.P,J7,2,D-*%
%TO.N,/USB1_D-*%
X47414000Y-88950000D03*
%TO.P,J7,3,D+*%
%TO.N,/USB1_D+*%
X47414000Y-90950000D03*
%TO.P,J7,4,GND*%
%TO.N,GND*%
X47414000Y-93450000D03*
D20*
%TO.P,J7,5,Shield*%
%TO.N,Net-(J7-Shield)*%
X44704000Y-83380000D03*
X44704000Y-96520000D03*
%TD*%
D12*
%TO.P,D13,1,K*%
%TO.N,GND*%
X60115000Y-99060000D03*
%TO.P,D13,2,A*%
%TO.N,Net-(D13-A)*%
X61085000Y-99060000D03*
%TD*%
D11*
%TO.P,D53,1,K*%
%TO.N,GND*%
X74755000Y-109220000D03*
%TO.P,D53,2,A*%
%TO.N,Net-(D53-A)*%
X73785000Y-109220000D03*
%TD*%
%TO.P,D45,1,K*%
%TO.N,GND*%
X74905000Y-88900000D03*
%TO.P,D45,2,A*%
%TO.N,Net-(D45-A)*%
X73935000Y-88900000D03*
%TD*%
D12*
%TO.P,D25,1,K*%
%TO.N,GND*%
X115995000Y-83820000D03*
%TO.P,D25,2,A*%
%TO.N,Net-(D25-A)*%
X116965000Y-83820000D03*
%TD*%
D10*
%TO.P,R19,1*%
%TO.N,Net-(D19-A)*%
X118485000Y-68580000D03*
%TO.P,R19,2*%
%TO.N,/P2_1*%
X119505000Y-68580000D03*
%TD*%
D14*
%TO.P,R52,1*%
%TO.N,Net-(D52-A)*%
X72265000Y-106680000D03*
%TO.P,R52,2*%
%TO.N,/P1_32*%
X71245000Y-106680000D03*
%TD*%
%TO.P,R42,1*%
%TO.N,Net-(D42-A)*%
X72265000Y-81280000D03*
%TO.P,R42,2*%
%TO.N,/P1_12*%
X71245000Y-81280000D03*
%TD*%
D11*
%TO.P,D46,1,K*%
%TO.N,GND*%
X74755000Y-91440000D03*
%TO.P,D46,2,A*%
%TO.N,Net-(D46-A)*%
X73785000Y-91440000D03*
%TD*%
D12*
%TO.P,D34,1,K*%
%TO.N,GND*%
X115995000Y-106680000D03*
%TO.P,D34,2,A*%
%TO.N,Net-(D34-A)*%
X116965000Y-106680000D03*
%TD*%
D11*
%TO.P,D49,1,K*%
%TO.N,GND*%
X74755000Y-99060000D03*
%TO.P,D49,2,A*%
%TO.N,Net-(D49-A)*%
X73785000Y-99060000D03*
%TD*%
D14*
%TO.P,R43,1*%
%TO.N,Net-(D43-A)*%
X72265000Y-83820000D03*
%TO.P,R43,2*%
%TO.N,/3P3V*%
X71245000Y-83820000D03*
%TD*%
%TO.P,R72,1*%
%TO.N,Net-(D72-A)*%
X128145000Y-111760000D03*
%TO.P,R72,2*%
%TO.N,/P2_36*%
X127125000Y-111760000D03*
%TD*%
D12*
%TO.P,D36,1,K*%
%TO.N,GND*%
X115995000Y-111760000D03*
%TO.P,D36,2,A*%
%TO.N,Net-(D36-A)*%
X116965000Y-111760000D03*
%TD*%
D14*
%TO.P,R59,1*%
%TO.N,Net-(D59-A)*%
X128145000Y-78740000D03*
%TO.P,R59,2*%
%TO.N,/P2_10*%
X127125000Y-78740000D03*
%TD*%
D12*
%TO.P,D18,1,K*%
%TO.N,GND*%
X60115000Y-111760000D03*
%TO.P,D18,2,A*%
%TO.N,Net-(D18-A)*%
X61085000Y-111760000D03*
%TD*%
D10*
%TO.P,R23,1*%
%TO.N,Net-(D23-A)*%
X118485000Y-78740000D03*
%TO.P,R23,2*%
%TO.N,/P2_9*%
X119505000Y-78740000D03*
%TD*%
D14*
%TO.P,R56,1*%
%TO.N,Net-(D56-A)*%
X128145000Y-71120000D03*
%TO.P,R56,2*%
%TO.N,/P2_4*%
X127125000Y-71120000D03*
%TD*%
%TO.P,R38,1*%
%TO.N,Net-(D38-A)*%
X72265000Y-71120000D03*
%TO.P,R38,2*%
%TO.N,/P1_4*%
X71245000Y-71120000D03*
%TD*%
D11*
%TO.P,D54,1,K*%
%TO.N,GND*%
X74755000Y-111760000D03*
%TO.P,D54,2,A*%
%TO.N,Net-(D54-A)*%
X73785000Y-111760000D03*
%TD*%
%TO.P,D66,1,K*%
%TO.N,GND*%
X130635000Y-96520000D03*
%TO.P,D66,2,A*%
%TO.N,Net-(D66-A)*%
X129665000Y-96520000D03*
%TD*%
D10*
%TO.P,R10,1*%
%TO.N,Net-(D10-A)*%
X62605000Y-91440000D03*
%TO.P,R10,2*%
%TO.N,/P1_19*%
X63625000Y-91440000D03*
%TD*%
D14*
%TO.P,R71,1*%
%TO.N,Net-(D71-A)*%
X128145000Y-109220000D03*
%TO.P,R71,2*%
%TO.N,/P2_34*%
X127125000Y-109220000D03*
%TD*%
D12*
%TO.P,D20,1,K*%
%TO.N,GND*%
X115995000Y-71120000D03*
%TO.P,D20,2,A*%
%TO.N,Net-(D20-A)*%
X116965000Y-71120000D03*
%TD*%
D14*
%TO.P,R54,1*%
%TO.N,Net-(D54-A)*%
X72265000Y-111760000D03*
%TO.P,R54,2*%
%TO.N,/P1_36*%
X71245000Y-111760000D03*
%TD*%
%TO.P,R63,1*%
%TO.N,Net-(D63-A)*%
X128145000Y-88900000D03*
%TO.P,R63,2*%
%TO.N,/P2_18*%
X127125000Y-88900000D03*
%TD*%
D11*
%TO.P,D48,1,K*%
%TO.N,GND*%
X74905000Y-96520000D03*
%TO.P,D48,2,A*%
%TO.N,Net-(D48-A)*%
X73935000Y-96520000D03*
%TD*%
%TO.P,D71,1,K*%
%TO.N,GND*%
X130635000Y-109220000D03*
%TO.P,D71,2,A*%
%TO.N,Net-(D71-A)*%
X129665000Y-109220000D03*
%TD*%
%TO.P,D50,1,K*%
%TO.N,GND*%
X74755000Y-101600000D03*
%TO.P,D50,2,A*%
%TO.N,Net-(D50-A)*%
X73785000Y-101600000D03*
%TD*%
%TO.P,D37,1,K*%
%TO.N,GND*%
X74755000Y-68580000D03*
%TO.P,D37,2,A*%
%TO.N,Net-(D37-A)*%
X73785000Y-68580000D03*
%TD*%
D12*
%TO.P,D28,1,K*%
%TO.N,GND*%
X115995000Y-91440000D03*
%TO.P,D28,2,A*%
%TO.N,Net-(D28-A)*%
X116965000Y-91440000D03*
%TD*%
%TO.P,D1,1,K*%
%TO.N,GND*%
X60115000Y-68580000D03*
%TO.P,D1,2,A*%
%TO.N,Net-(D1-A)*%
X61085000Y-68580000D03*
%TD*%
D10*
%TO.P,R12,1*%
%TO.N,Net-(D12-A)*%
X62605000Y-96520000D03*
%TO.P,R12,2*%
%TO.N,/P1_23*%
X63625000Y-96520000D03*
%TD*%
D12*
%TO.P,D15,1,K*%
%TO.N,GND*%
X60115000Y-104140000D03*
%TO.P,D15,2,A*%
%TO.N,Net-(D15-A)*%
X61085000Y-104140000D03*
%TD*%
D11*
%TO.P,D69,1,K*%
%TO.N,GND*%
X130635000Y-104140000D03*
%TO.P,D69,2,A*%
%TO.N,Net-(D69-A)*%
X129665000Y-104140000D03*
%TD*%
D10*
%TO.P,R36,1*%
%TO.N,Net-(D36-A)*%
X118485000Y-111760000D03*
%TO.P,R36,2*%
%TO.N,/P2_35*%
X119505000Y-111760000D03*
%TD*%
D12*
%TO.P,D14,1,K*%
%TO.N,GND*%
X60115000Y-101600000D03*
%TO.P,D14,2,A*%
%TO.N,Net-(D14-A)*%
X61085000Y-101600000D03*
%TD*%
D14*
%TO.P,R41,1*%
%TO.N,Net-(D41-A)*%
X72265000Y-78740000D03*
%TO.P,R41,2*%
%TO.N,/P1_10*%
X71245000Y-78740000D03*
%TD*%
D11*
%TO.P,D40,1,K*%
%TO.N,GND*%
X74755000Y-76200000D03*
%TO.P,D40,2,A*%
%TO.N,Net-(D40-A)*%
X73785000Y-76200000D03*
%TD*%
D15*
%TO.P,J5,1,Pin_1*%
%TO.N,/P1_2*%
X68580000Y-68580000D03*
D16*
%TO.P,J5,2,Pin_2*%
%TO.N,/P1_4*%
X68580000Y-71120000D03*
%TO.P,J5,3,Pin_3*%
%TO.N,/P1_6*%
X68580000Y-73660000D03*
%TO.P,J5,4,Pin_4*%
%TO.N,/P1_8*%
X68580000Y-76200000D03*
%TO.P,J5,5,Pin_5*%
%TO.N,/P1_10*%
X68580000Y-78740000D03*
%TO.P,J5,6,Pin_6*%
%TO.N,/P1_12*%
X68580000Y-81280000D03*
%TO.P,J5,7,Pin_7*%
%TO.N,/3P3V*%
X68580000Y-83820000D03*
%TO.P,J5,8,Pin_8*%
%TO.N,GND*%
X68580000Y-86360000D03*
%TO.P,J5,9,Pin_9*%
%TO.N,/ADC_VREF*%
X68580000Y-88900000D03*
%TO.P,J5,10,Pin_10*%
%TO.N,/P1_20*%
X68580000Y-91440000D03*
%TO.P,J5,11,Pin_11*%
%TO.N,GND*%
X68580000Y-93980000D03*
%TO.P,J5,12,Pin_12*%
%TO.N,/VOUT*%
X68580000Y-96520000D03*
%TO.P,J5,13,Pin_13*%
%TO.N,/P1_26*%
X68580000Y-99060000D03*
%TO.P,J5,14,Pin_14*%
%TO.N,/P1_28*%
X68580000Y-101600000D03*
%TO.P,J5,15,Pin_15*%
%TO.N,/P1_30*%
X68580000Y-104140000D03*
%TO.P,J5,16,Pin_16*%
%TO.N,/P1_32*%
X68580000Y-106680000D03*
%TO.P,J5,17,Pin_17*%
%TO.N,/P1_34*%
X68580000Y-109220000D03*
%TO.P,J5,18,Pin_18*%
%TO.N,/P1_36*%
X68580000Y-111760000D03*
%TD*%
D14*
%TO.P,R37,1*%
%TO.N,Net-(D37-A)*%
X72265000Y-68580000D03*
%TO.P,R37,2*%
%TO.N,/P1_2*%
X71245000Y-68580000D03*
%TD*%
%TO.P,R39,1*%
%TO.N,Net-(D39-A)*%
X72265000Y-73660000D03*
%TO.P,R39,2*%
%TO.N,/P1_6*%
X71245000Y-73660000D03*
%TD*%
%TO.P,R53,1*%
%TO.N,Net-(D53-A)*%
X72265000Y-109220000D03*
%TO.P,R53,2*%
%TO.N,/P1_34*%
X71245000Y-109220000D03*
%TD*%
D12*
%TO.P,D11,1,K*%
%TO.N,GND*%
X60115000Y-93980000D03*
%TO.P,D11,2,A*%
%TO.N,Net-(D11-A)*%
X61085000Y-93980000D03*
%TD*%
D10*
%TO.P,R34,1*%
%TO.N,Net-(D34-A)*%
X118485000Y-106680000D03*
%TO.P,R34,2*%
%TO.N,/P2_31*%
X119505000Y-106680000D03*
%TD*%
D11*
%TO.P,D43,1,K*%
%TO.N,GND*%
X74630000Y-83820000D03*
%TO.P,D43,2,A*%
%TO.N,Net-(D43-A)*%
X73660000Y-83820000D03*
%TD*%
D14*
%TO.P,R49,1*%
%TO.N,Net-(D49-A)*%
X72265000Y-99060000D03*
%TO.P,R49,2*%
%TO.N,/P1_26*%
X71245000Y-99060000D03*
%TD*%
D10*
%TO.P,R22,1*%
%TO.N,Net-(D22-A)*%
X118485000Y-76200000D03*
%TO.P,R22,2*%
%TO.N,/UART_TX*%
X119505000Y-76200000D03*
%TD*%
D14*
%TO.P,R55,1*%
%TO.N,Net-(D55-A)*%
X128145000Y-68580000D03*
%TO.P,R55,2*%
%TO.N,/P2_2*%
X127125000Y-68580000D03*
%TD*%
D15*
%TO.P,J4,1,Pin_1*%
%TO.N,/P2_1*%
X121920000Y-68580000D03*
D16*
%TO.P,J4,2,Pin_2*%
%TO.N,/P2_3*%
X121920000Y-71120000D03*
%TO.P,J4,3,Pin_3*%
%TO.N,/UART_RX*%
X121920000Y-73660000D03*
%TO.P,J4,4,Pin_4*%
%TO.N,/UART_TX*%
X121920000Y-76200000D03*
%TO.P,J4,5,Pin_5*%
%TO.N,/P2_9*%
X121920000Y-78740000D03*
%TO.P,J4,6,Pin_6*%
%TO.N,/P2_11*%
X121920000Y-81280000D03*
%TO.P,J4,7,Pin_7*%
%TO.N,/VOUT*%
X121920000Y-83820000D03*
%TO.P,J4,8,Pin_8*%
%TO.N,GND*%
X121920000Y-86360000D03*
%TO.P,J4,9,Pin_9*%
%TO.N,/P2_17*%
X121920000Y-88900000D03*
%TO.P,J4,10,Pin_10*%
%TO.N,/P2_19*%
X121920000Y-91440000D03*
%TO.P,J4,11,Pin_11*%
%TO.N,GND*%
X121920000Y-93980000D03*
%TO.P,J4,12,Pin_12*%
%TO.N,/3P3V_1*%
X121920000Y-96520000D03*
%TO.P,J4,13,Pin_13*%
%TO.N,/P2_25*%
X121920000Y-99060000D03*
%TO.P,J4,14,Pin_14*%
%TO.N,/P2_27*%
X121920000Y-101600000D03*
%TO.P,J4,15,Pin_15*%
%TO.N,/P2_29*%
X121920000Y-104140000D03*
%TO.P,J4,16,Pin_16*%
%TO.N,/P2_31*%
X121920000Y-106680000D03*
%TO.P,J4,17,Pin_17*%
%TO.N,/P2_33*%
X121920000Y-109220000D03*
%TO.P,J4,18,Pin_18*%
%TO.N,/P2_35*%
X121920000Y-111760000D03*
%TD*%
D21*
%TO.P,U1,1,EN*%
%TO.N,/USB1_DRVVBUS*%
X55239500Y-90372100D03*
%TO.P,U1,2,GND*%
%TO.N,GND*%
X55239500Y-89422100D03*
%TO.P,U1,3,IN*%
%TO.N,/VOUT*%
X55239500Y-88472100D03*
%TO.P,U1,4,OUT*%
%TO.N,/USB1_VBUS*%
X52964500Y-88472100D03*
%TO.P,U1,5,D1*%
%TO.N,/USB1_D-*%
X52964500Y-89422100D03*
%TO.P,U1,6,D2*%
%TO.N,/USB1_D+*%
X52964500Y-90372100D03*
%TD*%
D10*
%TO.P,R32,1*%
%TO.N,Net-(D32-A)*%
X118485000Y-101600000D03*
%TO.P,R32,2*%
%TO.N,/P2_27*%
X119505000Y-101600000D03*
%TD*%
D14*
%TO.P,R48,1*%
%TO.N,Net-(D48-A)*%
X72265000Y-96520000D03*
%TO.P,R48,2*%
%TO.N,/VOUT*%
X71245000Y-96520000D03*
%TD*%
%TO.P,R45,1*%
%TO.N,Net-(D45-A)*%
X72265000Y-88900000D03*
%TO.P,R45,2*%
%TO.N,/ADC_VREF*%
X71245000Y-88900000D03*
%TD*%
D11*
%TO.P,D57,1,K*%
%TO.N,GND*%
X130635000Y-73660000D03*
%TO.P,D57,2,A*%
%TO.N,Net-(D57-A)*%
X129665000Y-73660000D03*
%TD*%
D14*
%TO.P,R69,1*%
%TO.N,Net-(D69-A)*%
X128145000Y-104140000D03*
%TO.P,R69,2*%
%TO.N,/P2_30*%
X127125000Y-104140000D03*
%TD*%
D10*
%TO.P,R27,1*%
%TO.N,Net-(D27-A)*%
X118485000Y-88900000D03*
%TO.P,R27,2*%
%TO.N,/P2_17*%
X119505000Y-88900000D03*
%TD*%
D12*
%TO.P,D35,1,K*%
%TO.N,GND*%
X115995000Y-109220000D03*
%TO.P,D35,2,A*%
%TO.N,Net-(D35-A)*%
X116965000Y-109220000D03*
%TD*%
D11*
%TO.P,D64,1,K*%
%TO.N,GND*%
X130635000Y-91440000D03*
%TO.P,D64,2,A*%
%TO.N,Net-(D64-A)*%
X129665000Y-91440000D03*
%TD*%
D14*
%TO.P,R66,1*%
%TO.N,Net-(D66-A)*%
X128145000Y-96520000D03*
%TO.P,R66,2*%
%TO.N,/P2_24*%
X127125000Y-96520000D03*
%TD*%
D12*
%TO.P,D10,1,K*%
%TO.N,GND*%
X60115000Y-91440000D03*
%TO.P,D10,2,A*%
%TO.N,Net-(D10-A)*%
X61085000Y-91440000D03*
%TD*%
D14*
%TO.P,R40,1*%
%TO.N,Net-(D40-A)*%
X72265000Y-76200000D03*
%TO.P,R40,2*%
%TO.N,/P1_8*%
X71245000Y-76200000D03*
%TD*%
D22*
%TO.P,FB2,1*%
%TO.N,/USB1_VBUS*%
X51130200Y-86436300D03*
%TO.P,FB2,2*%
%TO.N,Net-(J7-VBUS)*%
X51130200Y-84861300D03*
%TD*%
D12*
%TO.P,D32,1,K*%
%TO.N,GND*%
X115995000Y-101600000D03*
%TO.P,D32,2,A*%
%TO.N,Net-(D32-A)*%
X116965000Y-101600000D03*
%TD*%
D23*
%TO.P,C1,1*%
%TO.N,/VOUT*%
X55219600Y-86423800D03*
%TO.P,C1,2*%
%TO.N,GND*%
X55219600Y-84873800D03*
%TD*%
D15*
%TO.P,P2,1,Pin_1*%
%TO.N,/P2_1*%
X106680000Y-68580000D03*
D16*
%TO.P,P2,2,Pin_2*%
%TO.N,/P2_2*%
X109220000Y-68580000D03*
%TO.P,P2,3,Pin_3*%
%TO.N,/P2_3*%
X106680000Y-71120000D03*
%TO.P,P2,4,Pin_4*%
%TO.N,/P2_4*%
X109220000Y-71120000D03*
%TO.P,P2,5,Pin_5*%
%TO.N,/UART_RX*%
X106680000Y-73660000D03*
%TO.P,P2,6,Pin_6*%
%TO.N,/P2_6*%
X109220000Y-73660000D03*
%TO.P,P2,7,Pin_7*%
%TO.N,/UART_TX*%
X106680000Y-76200000D03*
%TO.P,P2,8,Pin_8*%
%TO.N,/P2_8*%
X109220000Y-76200000D03*
%TO.P,P2,9,Pin_9*%
%TO.N,/P2_9*%
X106680000Y-78740000D03*
%TO.P,P2,10,Pin_10*%
%TO.N,/P2_10*%
X109220000Y-78740000D03*
%TO.P,P2,11,Pin_11*%
%TO.N,/P2_11*%
X106680000Y-81280000D03*
%TO.P,P2,12,Pin_12*%
%TO.N,/PWR_BTN*%
X109220000Y-81280000D03*
%TO.P,P2,13,Pin_13*%
%TO.N,/VOUT*%
X106680000Y-83820000D03*
%TO.P,P2,14,Pin_14*%
%TO.N,/VIN_BAT*%
X109220000Y-83820000D03*
%TO.P,P2,15,Pin_15*%
%TO.N,GND*%
X106680000Y-86360000D03*
%TO.P,P2,16,Pin_16*%
%TO.N,/BAT_TEMP*%
X109220000Y-86360000D03*
%TO.P,P2,17,Pin_17*%
%TO.N,/P2_17*%
X106680000Y-88900000D03*
%TO.P,P2,18,Pin_18*%
%TO.N,/P2_18*%
X109220000Y-88900000D03*
%TO.P,P2,19,Pin_19*%
%TO.N,/P2_19*%
X106680000Y-91440000D03*
%TO.P,P2,20,Pin_20*%
%TO.N,/P2_20*%
X109220000Y-91440000D03*
%TO.P,P2,21,Pin_21*%
%TO.N,GND*%
X106680000Y-93980000D03*
%TO.P,P2,22,Pin_22*%
%TO.N,/P2_22*%
X109220000Y-93980000D03*
%TO.P,P2,23,Pin_23*%
%TO.N,/3P3V_1*%
X106680000Y-96520000D03*
%TO.P,P2,24,Pin_24*%
%TO.N,/P2_24*%
X109220000Y-96520000D03*
%TO.P,P2,25,Pin_25*%
%TO.N,/P2_25*%
X106680000Y-99060000D03*
%TO.P,P2,26,Pin_26*%
%TO.N,/RESETn*%
X109220000Y-99060000D03*
%TO.P,P2,27,Pin_27*%
%TO.N,/P2_27*%
X106680000Y-101600000D03*
%TO.P,P2,28,Pin_28*%
%TO.N,/P2_28*%
X109220000Y-101600000D03*
%TO.P,P2,29,Pin_29*%
%TO.N,/P2_29*%
X106680000Y-104140000D03*
%TO.P,P2,30,Pin_30*%
%TO.N,/P2_30*%
X109220000Y-104140000D03*
%TO.P,P2,31,Pin_31*%
%TO.N,/P2_31*%
X106680000Y-106680000D03*
%TO.P,P2,32,Pin_32*%
%TO.N,/P2_32*%
X109220000Y-106680000D03*
%TO.P,P2,33,Pin_33*%
%TO.N,/P2_33*%
X106680000Y-109220000D03*
%TO.P,P2,34,Pin_34*%
%TO.N,/P2_34*%
X109220000Y-109220000D03*
%TO.P,P2,35,Pin_35*%
%TO.N,/P2_35*%
X106680000Y-111760000D03*
%TO.P,P2,36,Pin_36*%
%TO.N,/P2_36*%
X109220000Y-111760000D03*
%TD*%
D11*
%TO.P,D52,1,K*%
%TO.N,GND*%
X74755000Y-106680000D03*
%TO.P,D52,2,A*%
%TO.N,Net-(D52-A)*%
X73785000Y-106680000D03*
%TD*%
D14*
%TO.P,R46,1*%
%TO.N,Net-(D46-A)*%
X72265000Y-91440000D03*
%TO.P,R46,2*%
%TO.N,/P1_20*%
X71245000Y-91440000D03*
%TD*%
D10*
%TO.P,R21,1*%
%TO.N,Net-(D21-A)*%
X118485000Y-73660000D03*
%TO.P,R21,2*%
%TO.N,/UART_RX*%
X119505000Y-73660000D03*
%TD*%
%TO.P,R28,1*%
%TO.N,Net-(D28-A)*%
X118485000Y-91440000D03*
%TO.P,R28,2*%
%TO.N,/P2_19*%
X119505000Y-91440000D03*
%TD*%
D15*
%TO.P,P1,1,Pin_1*%
%TO.N,/VIN*%
X81280000Y-68580000D03*
D16*
%TO.P,P1,2,Pin_2*%
%TO.N,/P1_2*%
X83820000Y-68580000D03*
%TO.P,P1,3,Pin_3*%
%TO.N,/USB1_DRVVBUS*%
X81280000Y-71120000D03*
%TO.P,P1,4,Pin_4*%
%TO.N,/P1_4*%
X83820000Y-71120000D03*
%TO.P,P1,5,Pin_5*%
%TO.N,/USB1_VBUS*%
X81280000Y-73660000D03*
%TO.P,P1,6,Pin_6*%
%TO.N,/P1_6*%
X83820000Y-73660000D03*
%TO.P,P1,7,Pin_7*%
%TO.N,/VIN_USB*%
X81280000Y-76200000D03*
%TO.P,P1,8,Pin_8*%
%TO.N,/P1_8*%
X83820000Y-76200000D03*
%TO.P,P1,9,Pin_9*%
%TO.N,/USB1_D-*%
X81280000Y-78740000D03*
%TO.P,P1,10,Pin_10*%
%TO.N,/P1_10*%
X83820000Y-78740000D03*
%TO.P,P1,11,Pin_11*%
%TO.N,/USB1_D+*%
X81280000Y-81280000D03*
%TO.P,P1,12,Pin_12*%
%TO.N,/P1_12*%
X83820000Y-81280000D03*
%TO.P,P1,13,Pin_13*%
%TO.N,/P1_13*%
X81280000Y-83820000D03*
%TO.P,P1,14,Pin_14*%
%TO.N,/3P3V*%
X83820000Y-83820000D03*
%TO.P,P1,15,Pin_15*%
%TO.N,GND*%
X81280000Y-86360000D03*
%TO.P,P1,16,Pin_16*%
X83820000Y-86360000D03*
%TO.P,P1,17,Pin_17*%
%TO.N,/AGND*%
X81280000Y-88900000D03*
%TO.P,P1,18,Pin_18*%
%TO.N,/ADC_VREF*%
X83820000Y-88900000D03*
%TO.P,P1,19,Pin_19*%
%TO.N,/P1_19*%
X81280000Y-91440000D03*
%TO.P,P1,20,Pin_20*%
%TO.N,/P1_20*%
X83820000Y-91440000D03*
%TO.P,P1,21,Pin_21*%
%TO.N,/P1_21*%
X81280000Y-93980000D03*
%TO.P,P1,22,Pin_22*%
%TO.N,GND*%
X83820000Y-93980000D03*
%TO.P,P1,23,Pin_23*%
%TO.N,/P1_23*%
X81280000Y-96520000D03*
%TO.P,P1,24,Pin_24*%
%TO.N,/VOUT*%
X83820000Y-96520000D03*
%TO.P,P1,25,Pin_25*%
%TO.N,/P1_25*%
X81280000Y-99060000D03*
%TO.P,P1,26,Pin_26*%
%TO.N,/P1_26*%
X83820000Y-99060000D03*
%TO.P,P1,27,Pin_27*%
%TO.N,/P1_27*%
X81280000Y-101600000D03*
%TO.P,P1,28,Pin_28*%
%TO.N,/P1_28*%
X83820000Y-101600000D03*
%TO.P,P1,29,Pin_29*%
%TO.N,/P1_29*%
X81280000Y-104140000D03*
%TO.P,P1,30,Pin_30*%
%TO.N,/P1_30*%
X83820000Y-104140000D03*
%TO.P,P1,31,Pin_31*%
%TO.N,/P1_31*%
X81280000Y-106680000D03*
%TO.P,P1,32,Pin_32*%
%TO.N,/P1_32*%
X83820000Y-106680000D03*
%TO.P,P1,33,Pin_33*%
%TO.N,/P1_33*%
X81280000Y-109220000D03*
%TO.P,P1,34,Pin_34*%
%TO.N,/P1_34*%
X83820000Y-109220000D03*
%TO.P,P1,35,Pin_35*%
%TO.N,/P1_35*%
X81280000Y-111760000D03*
%TO.P,P1,36,Pin_36*%
%TO.N,/P1_36*%
X83820000Y-111760000D03*
%TD*%
D12*
%TO.P,D24,1,K*%
%TO.N,GND*%
X115995000Y-81280000D03*
%TO.P,D24,2,A*%
%TO.N,Net-(D24-A)*%
X116965000Y-81280000D03*
%TD*%
D11*
%TO.P,D38,1,K*%
%TO.N,GND*%
X74755000Y-71120000D03*
%TO.P,D38,2,A*%
%TO.N,Net-(D38-A)*%
X73785000Y-71120000D03*
%TD*%
D12*
%TO.P,D17,1,K*%
%TO.N,GND*%
X60115000Y-109220000D03*
%TO.P,D17,2,A*%
%TO.N,Net-(D17-A)*%
X61085000Y-109220000D03*
%TD*%
D11*
%TO.P,D72,1,K*%
%TO.N,GND*%
X130635000Y-111760000D03*
%TO.P,D72,2,A*%
%TO.N,Net-(D72-A)*%
X129665000Y-111760000D03*
%TD*%
D14*
%TO.P,R64,1*%
%TO.N,Net-(D64-A)*%
X128145000Y-91440000D03*
%TO.P,R64,2*%
%TO.N,/P2_20*%
X127125000Y-91440000D03*
%TD*%
D12*
%TO.P,D23,1,K*%
%TO.N,GND*%
X115995000Y-78740000D03*
%TO.P,D23,2,A*%
%TO.N,Net-(D23-A)*%
X116965000Y-78740000D03*
%TD*%
%TO.P,D2,1,K*%
%TO.N,GND*%
X59944000Y-83820000D03*
%TO.P,D2,2,A*%
%TO.N,Net-(D2-A)*%
X60914000Y-83820000D03*
%TD*%
D23*
%TO.P,C2,1*%
%TO.N,/USB1_VBUS*%
X52984400Y-86423800D03*
%TO.P,C2,2*%
%TO.N,GND*%
X52984400Y-84873800D03*
%TD*%
D11*
%TO.P,D41,1,K*%
%TO.N,GND*%
X74755000Y-78740000D03*
%TO.P,D41,2,A*%
%TO.N,Net-(D41-A)*%
X73785000Y-78740000D03*
%TD*%
D10*
%TO.P,R30,1*%
%TO.N,Net-(D30-A)*%
X118485000Y-96520000D03*
%TO.P,R30,2*%
%TO.N,/3P3V_1*%
X119505000Y-96520000D03*
%TD*%
D11*
%TO.P,D70,1,K*%
%TO.N,GND*%
X130635000Y-106680000D03*
%TO.P,D70,2,A*%
%TO.N,Net-(D70-A)*%
X129665000Y-106680000D03*
%TD*%
D10*
%TO.P,R33,1*%
%TO.N,Net-(D33-A)*%
X118485000Y-104140000D03*
%TO.P,R33,2*%
%TO.N,/P2_29*%
X119505000Y-104140000D03*
%TD*%
D12*
%TO.P,D30,1,K*%
%TO.N,GND*%
X115995000Y-96520000D03*
%TO.P,D30,2,A*%
%TO.N,Net-(D30-A)*%
X116965000Y-96520000D03*
%TD*%
D14*
%TO.P,R50,1*%
%TO.N,Net-(D50-A)*%
X72265000Y-101600000D03*
%TO.P,R50,2*%
%TO.N,/P1_28*%
X71245000Y-101600000D03*
%TD*%
D11*
%TO.P,D55,1,K*%
%TO.N,GND*%
X130635000Y-68580000D03*
%TO.P,D55,2,A*%
%TO.N,Net-(D55-A)*%
X129665000Y-68580000D03*
%TD*%
D10*
%TO.P,R31,1*%
%TO.N,Net-(D31-A)*%
X118485000Y-99060000D03*
%TO.P,R31,2*%
%TO.N,/P2_25*%
X119505000Y-99060000D03*
%TD*%
%TO.P,R16,1*%
%TO.N,Net-(D16-A)*%
X62605000Y-106680000D03*
%TO.P,R16,2*%
%TO.N,/P1_31*%
X63625000Y-106680000D03*
%TD*%
D11*
%TO.P,D39,1,K*%
%TO.N,GND*%
X74755000Y-73660000D03*
%TO.P,D39,2,A*%
%TO.N,Net-(D39-A)*%
X73785000Y-73660000D03*
%TD*%
D24*
%TO.N,/USB1_VBUS*%
X54076600Y-73660000D03*
%TO.N,GND*%
X75946000Y-109220000D03*
X58928000Y-68580000D03*
X58928000Y-96520000D03*
X114808000Y-83820000D03*
X131826000Y-104140000D03*
X75946000Y-99060000D03*
X60115000Y-92373000D03*
X114808000Y-99060000D03*
X75946000Y-71120000D03*
X131826000Y-91440000D03*
X114808000Y-104140000D03*
X114808000Y-106680000D03*
X58928000Y-109220000D03*
X75946000Y-111760000D03*
X131826000Y-111760000D03*
X114808000Y-101600000D03*
X131826000Y-68580000D03*
X58928000Y-99060000D03*
X114808000Y-81280000D03*
X75946000Y-81280000D03*
X47244000Y-80264000D03*
X75946000Y-83820000D03*
X114808000Y-71120000D03*
X55219600Y-84023200D03*
X114808000Y-78740000D03*
X131826000Y-109220000D03*
X75946000Y-104140000D03*
X131826000Y-78740000D03*
X131826000Y-71120000D03*
X114808000Y-111760000D03*
X52984400Y-83972400D03*
X131826000Y-93980000D03*
X131826000Y-73660000D03*
X114808000Y-73660000D03*
X131826000Y-96520000D03*
X75946000Y-91440000D03*
X75946000Y-68580000D03*
X114808000Y-76200000D03*
X58928000Y-104140000D03*
X114808000Y-96520000D03*
X58928000Y-101600000D03*
X59944000Y-84836000D03*
X131826000Y-88900000D03*
X75946000Y-73660000D03*
X58928000Y-111760000D03*
X58928000Y-93980000D03*
X75946000Y-101600000D03*
X114808000Y-68580000D03*
X75946000Y-88900000D03*
X114808000Y-109220000D03*
X75946000Y-76200000D03*
X131826000Y-101600000D03*
X75946000Y-78740000D03*
X131826000Y-106680000D03*
X58928000Y-106680000D03*
X131826000Y-76200000D03*
X56642000Y-88392000D03*
X75946000Y-106680000D03*
X114808000Y-88900000D03*
X75946000Y-96520000D03*
X114808000Y-91440000D03*
%TD*%
D25*
%TO.N,/ADC_VREF*%
X71880000Y-89535000D02*
X79375000Y-89535000D01*
X82670000Y-90050000D02*
X83820000Y-88900000D01*
X79890000Y-90050000D02*
X82670000Y-90050000D01*
X68580000Y-88900000D02*
X71245000Y-88900000D01*
X79375000Y-89535000D02*
X79890000Y-90050000D01*
X71245000Y-88900000D02*
X71880000Y-89535000D01*
D26*
%TO.N,/USB1_VBUS*%
X54076600Y-73660000D02*
X54102000Y-73685400D01*
D25*
X66040000Y-73660000D02*
X67310000Y-72390000D01*
X78740000Y-72390000D02*
X80010000Y-73660000D01*
D26*
X52984400Y-86423800D02*
X52984400Y-88452200D01*
X54102000Y-85979000D02*
X53657200Y-86423800D01*
D25*
X80010000Y-73660000D02*
X81280000Y-73660000D01*
D26*
X51142700Y-86423800D02*
X51130200Y-86436300D01*
X52984400Y-86423800D02*
X51142700Y-86423800D01*
D25*
X67310000Y-72390000D02*
X78740000Y-72390000D01*
D26*
X52984400Y-88452200D02*
X52964500Y-88472100D01*
X53657200Y-86423800D02*
X52984400Y-86423800D01*
X54102000Y-73685400D02*
X54102000Y-85979000D01*
D25*
%TO.N,/P1_12*%
X71880000Y-81915000D02*
X79375000Y-81915000D01*
X79890000Y-82430000D02*
X82670000Y-82430000D01*
X79375000Y-81915000D02*
X79890000Y-82430000D01*
X71245000Y-81280000D02*
X71880000Y-81915000D01*
X68580000Y-81280000D02*
X71245000Y-81280000D01*
X82670000Y-82430000D02*
X83820000Y-81280000D01*
D26*
%TO.N,Net-(J7-Shield)*%
X44704000Y-96520000D02*
X44704000Y-83380000D01*
X44704000Y-83380000D02*
X44704000Y-80289500D01*
X44704000Y-80289500D02*
X44678500Y-80264000D01*
D25*
%TO.N,/VIN*%
X66040000Y-68580000D02*
X67310000Y-67310000D01*
X66040000Y-68580000D02*
X63625000Y-68580000D01*
X78740000Y-67310000D02*
X80010000Y-68580000D01*
X67310000Y-67310000D02*
X78740000Y-67310000D01*
X80010000Y-68580000D02*
X81280000Y-68580000D01*
%TO.N,/P1_23*%
X80010000Y-96520000D02*
X81280000Y-96520000D01*
X66040000Y-96520000D02*
X67310000Y-95250000D01*
X66040000Y-96520000D02*
X63625000Y-96520000D01*
X78740000Y-95250000D02*
X80010000Y-96520000D01*
X67310000Y-95250000D02*
X78740000Y-95250000D01*
%TO.N,/P1_32*%
X71245000Y-106680000D02*
X71880000Y-107315000D01*
X79375000Y-107315000D02*
X79890000Y-107830000D01*
X79890000Y-107830000D02*
X82670000Y-107830000D01*
X71880000Y-107315000D02*
X79375000Y-107315000D01*
X68580000Y-106680000D02*
X71245000Y-106680000D01*
X82670000Y-107830000D02*
X83820000Y-106680000D01*
%TO.N,/VIN_USB*%
X67310000Y-74930000D02*
X78740000Y-74930000D01*
X80010000Y-76200000D02*
X81280000Y-76200000D01*
X78740000Y-74930000D02*
X80010000Y-76200000D01*
X66040000Y-76200000D02*
X67310000Y-74930000D01*
%TO.N,/P1_33*%
X67310000Y-107950000D02*
X78740000Y-107950000D01*
X66040000Y-109220000D02*
X63625000Y-109220000D01*
X80010000Y-109220000D02*
X81280000Y-109220000D01*
X66040000Y-109220000D02*
X67310000Y-107950000D01*
X78740000Y-107950000D02*
X80010000Y-109220000D01*
%TO.N,/P1_30*%
X82670000Y-105290000D02*
X83820000Y-104140000D01*
X71245000Y-104140000D02*
X71880000Y-104775000D01*
X79375000Y-104775000D02*
X79890000Y-105290000D01*
X71880000Y-104775000D02*
X79375000Y-104775000D01*
X68580000Y-104140000D02*
X71245000Y-104140000D01*
X79890000Y-105290000D02*
X82670000Y-105290000D01*
%TO.N,/VOUT*%
X79375000Y-97155000D02*
X79890000Y-97670000D01*
X71245000Y-96520000D02*
X71880000Y-97155000D01*
D27*
X93370400Y-94208600D02*
X93370400Y-83820000D01*
X93370400Y-67995800D02*
X93370400Y-83820000D01*
D25*
X82670000Y-97670000D02*
X83820000Y-96520000D01*
D26*
X56337200Y-66979800D02*
X56337200Y-86055200D01*
X55968600Y-86423800D02*
X55219600Y-86423800D01*
D27*
X57683400Y-65633600D02*
X91008200Y-65633600D01*
D25*
X121920000Y-83820000D02*
X119505000Y-83820000D01*
X107830000Y-82670000D02*
X106680000Y-83820000D01*
X118870000Y-83185000D02*
X111125000Y-83185000D01*
X111125000Y-83185000D02*
X110610000Y-82670000D01*
D27*
X91059000Y-96520000D02*
X93370400Y-94208600D01*
D25*
X110610000Y-82670000D02*
X107830000Y-82670000D01*
D26*
X56337200Y-86055200D02*
X55968600Y-86423800D01*
D25*
X71880000Y-97155000D02*
X79375000Y-97155000D01*
X119505000Y-83820000D02*
X118870000Y-83185000D01*
D27*
X91008200Y-65633600D02*
X93370400Y-67995800D01*
D26*
X57683400Y-65633600D02*
X56337200Y-66979800D01*
D27*
X83820000Y-96520000D02*
X91059000Y-96520000D01*
D26*
X55239500Y-88472100D02*
X55219600Y-88452200D01*
D25*
X79890000Y-97670000D02*
X82670000Y-97670000D01*
D27*
X93370400Y-83820000D02*
X106680000Y-83820000D01*
D25*
X68580000Y-96520000D02*
X71245000Y-96520000D01*
D26*
X55219600Y-88452200D02*
X55219600Y-86423800D01*
D25*
%TO.N,/P1_26*%
X68580000Y-99060000D02*
X71245000Y-99060000D01*
X71245000Y-99060000D02*
X71880000Y-99695000D01*
X82670000Y-100210000D02*
X83820000Y-99060000D01*
X71880000Y-99695000D02*
X79375000Y-99695000D01*
X79890000Y-100210000D02*
X82670000Y-100210000D01*
X79375000Y-99695000D02*
X79890000Y-100210000D01*
%TO.N,/P1_10*%
X71245000Y-78740000D02*
X71880000Y-79375000D01*
X79375000Y-79375000D02*
X79890000Y-79890000D01*
X79890000Y-79890000D02*
X82670000Y-79890000D01*
X68580000Y-78740000D02*
X71245000Y-78740000D01*
X82670000Y-79890000D02*
X83820000Y-78740000D01*
X71880000Y-79375000D02*
X79375000Y-79375000D01*
%TO.N,/P1_20*%
X71880000Y-92075000D02*
X79375000Y-92075000D01*
X82670000Y-92590000D02*
X83820000Y-91440000D01*
X79375000Y-92075000D02*
X79890000Y-92590000D01*
X79890000Y-92590000D02*
X82670000Y-92590000D01*
X68580000Y-91440000D02*
X71245000Y-91440000D01*
X71245000Y-91440000D02*
X71880000Y-92075000D01*
%TO.N,/P1_31*%
X80010000Y-106680000D02*
X81280000Y-106680000D01*
X66040000Y-106680000D02*
X67310000Y-105410000D01*
X78740000Y-105410000D02*
X80010000Y-106680000D01*
X67310000Y-105410000D02*
X78740000Y-105410000D01*
X66040000Y-106680000D02*
X63625000Y-106680000D01*
%TO.N,/3P3V*%
X79375000Y-84455000D02*
X79890000Y-84970000D01*
X82670000Y-84970000D02*
X83820000Y-83820000D01*
X79890000Y-84970000D02*
X82670000Y-84970000D01*
X71245000Y-83820000D02*
X71880000Y-84455000D01*
X68580000Y-83820000D02*
X71245000Y-83820000D01*
X71880000Y-84455000D02*
X79375000Y-84455000D01*
%TO.N,/P1_28*%
X68580000Y-101600000D02*
X71245000Y-101600000D01*
X82670000Y-102750000D02*
X83820000Y-101600000D01*
X71245000Y-101600000D02*
X71880000Y-102235000D01*
X79890000Y-102750000D02*
X82670000Y-102750000D01*
X71880000Y-102235000D02*
X79375000Y-102235000D01*
X79375000Y-102235000D02*
X79890000Y-102750000D01*
%TO.N,/P1_4*%
X71245000Y-71120000D02*
X71880000Y-71755000D01*
X82670000Y-72270000D02*
X83820000Y-71120000D01*
X79890000Y-72270000D02*
X82670000Y-72270000D01*
X68580000Y-71120000D02*
X71245000Y-71120000D01*
X71880000Y-71755000D02*
X79375000Y-71755000D01*
X79375000Y-71755000D02*
X79890000Y-72270000D01*
%TO.N,/P1_34*%
X79375000Y-109855000D02*
X79890000Y-110370000D01*
X71245000Y-109220000D02*
X71880000Y-109855000D01*
X82670000Y-110370000D02*
X83820000Y-109220000D01*
X71880000Y-109855000D02*
X79375000Y-109855000D01*
X79890000Y-110370000D02*
X82670000Y-110370000D01*
X68580000Y-109220000D02*
X71245000Y-109220000D01*
%TO.N,/P1_35*%
X67310000Y-110490000D02*
X78740000Y-110490000D01*
X66040000Y-111760000D02*
X67310000Y-110490000D01*
X66040000Y-111760000D02*
X63625000Y-111760000D01*
X78740000Y-110490000D02*
X80010000Y-111760000D01*
X80010000Y-111760000D02*
X81280000Y-111760000D01*
%TO.N,/P1_27*%
X67310000Y-100330000D02*
X78740000Y-100330000D01*
X66040000Y-101600000D02*
X67310000Y-100330000D01*
X66040000Y-101600000D02*
X63625000Y-101600000D01*
X78740000Y-100330000D02*
X80010000Y-101600000D01*
X80010000Y-101600000D02*
X81280000Y-101600000D01*
%TO.N,/P1_2*%
X79890000Y-69730000D02*
X82670000Y-69730000D01*
X68580000Y-68580000D02*
X71245000Y-68580000D01*
X79375000Y-69215000D02*
X79890000Y-69730000D01*
X71880000Y-69215000D02*
X79375000Y-69215000D01*
X82670000Y-69730000D02*
X83820000Y-68580000D01*
X71245000Y-68580000D02*
X71880000Y-69215000D01*
%TO.N,/P1_6*%
X79375000Y-74295000D02*
X79890000Y-74810000D01*
X79890000Y-74810000D02*
X82670000Y-74810000D01*
X68580000Y-73660000D02*
X71245000Y-73660000D01*
X71880000Y-74295000D02*
X79375000Y-74295000D01*
X71245000Y-73660000D02*
X71880000Y-74295000D01*
X82670000Y-74810000D02*
X83820000Y-73660000D01*
%TO.N,/P1_36*%
X79375000Y-112395000D02*
X79890000Y-112910000D01*
X71245000Y-111760000D02*
X71880000Y-112395000D01*
X68580000Y-111760000D02*
X71245000Y-111760000D01*
X71880000Y-112395000D02*
X79375000Y-112395000D01*
X82670000Y-112910000D02*
X83820000Y-111760000D01*
X79890000Y-112910000D02*
X82670000Y-112910000D01*
%TO.N,/P1_19*%
X78740000Y-90170000D02*
X80010000Y-91440000D01*
X80010000Y-91440000D02*
X81280000Y-91440000D01*
X66040000Y-91440000D02*
X67310000Y-90170000D01*
X67310000Y-90170000D02*
X78740000Y-90170000D01*
X66040000Y-91440000D02*
X63625000Y-91440000D01*
%TO.N,/P1_29*%
X66040000Y-104140000D02*
X67310000Y-102870000D01*
X67310000Y-102870000D02*
X78740000Y-102870000D01*
X80010000Y-104140000D02*
X81280000Y-104140000D01*
X78740000Y-102870000D02*
X80010000Y-104140000D01*
X66040000Y-104140000D02*
X63625000Y-104140000D01*
D28*
%TO.N,/USB1_D+*%
X52964500Y-90372100D02*
X53238400Y-90646000D01*
X79629000Y-81280000D02*
X81280000Y-81280000D01*
X66040000Y-81280000D02*
X67294200Y-80025800D01*
X57445338Y-92583000D02*
X58826400Y-91201938D01*
X60366338Y-80416400D02*
X65176400Y-80416400D01*
X67294200Y-80025800D02*
X78374800Y-80025800D01*
X51955049Y-90356400D02*
X48007600Y-90356400D01*
X54229000Y-92583000D02*
X57445338Y-92583000D01*
X51970749Y-90372100D02*
X51955049Y-90356400D01*
X53238400Y-90646000D02*
X53238400Y-91592400D01*
X58826400Y-81956338D02*
X60366338Y-80416400D01*
X48007600Y-90356400D02*
X47414000Y-90950000D01*
X52964500Y-90372100D02*
X51970749Y-90372100D01*
X65176400Y-80416400D02*
X66040000Y-81280000D01*
X78374800Y-80025800D02*
X79629000Y-81280000D01*
X53238400Y-91592400D02*
X54229000Y-92583000D01*
X58826400Y-91201938D02*
X58826400Y-81956338D01*
D25*
%TO.N,/USB1_DRVVBUS*%
X57378600Y-88278657D02*
X56946800Y-87846857D01*
X78740000Y-69850000D02*
X80010000Y-71120000D01*
X59309000Y-71120000D02*
X66040000Y-71120000D01*
X67310000Y-69850000D02*
X78740000Y-69850000D01*
X56743600Y-90377200D02*
X57378600Y-89742200D01*
X80010000Y-71120000D02*
X81280000Y-71120000D01*
X57378600Y-89742200D02*
X57378600Y-88278657D01*
X56946800Y-73482200D02*
X59309000Y-71120000D01*
X55239500Y-90372100D02*
X56738500Y-90372100D01*
X56738500Y-90372100D02*
X56743600Y-90377200D01*
X66040000Y-71120000D02*
X67310000Y-69850000D01*
X56946800Y-87846857D02*
X56946800Y-73482200D01*
%TO.N,/P1_21*%
X80010000Y-93980000D02*
X81280000Y-93980000D01*
X66040000Y-93980000D02*
X67310000Y-92710000D01*
X66040000Y-93980000D02*
X63625000Y-93980000D01*
X67310000Y-92710000D02*
X78740000Y-92710000D01*
X78740000Y-92710000D02*
X80010000Y-93980000D01*
%TO.N,/P1_8*%
X71880000Y-76835000D02*
X79375000Y-76835000D01*
X79375000Y-76835000D02*
X79890000Y-77350000D01*
X68580000Y-76200000D02*
X71245000Y-76200000D01*
X82670000Y-77350000D02*
X83820000Y-76200000D01*
X79890000Y-77350000D02*
X82670000Y-77350000D01*
X71245000Y-76200000D02*
X71880000Y-76835000D01*
%TO.N,/P1_25*%
X66040000Y-99060000D02*
X67310000Y-97790000D01*
X78740000Y-97790000D02*
X80010000Y-99060000D01*
X80010000Y-99060000D02*
X81280000Y-99060000D01*
X66040000Y-99060000D02*
X63625000Y-99060000D01*
X67310000Y-97790000D02*
X78740000Y-97790000D01*
D28*
%TO.N,/USB1_D-*%
X48007600Y-89543600D02*
X47414000Y-88950000D01*
X54660800Y-91770200D02*
X54152800Y-91262200D01*
X54152800Y-89947901D02*
X53626999Y-89422100D01*
X54152800Y-91262200D02*
X54152800Y-89947901D01*
X66040000Y-78740000D02*
X67294200Y-77485800D01*
X53626999Y-89422100D02*
X52964500Y-89422100D01*
X66040000Y-78740000D02*
X65176400Y-79603600D01*
X79908400Y-78740000D02*
X81280000Y-78740000D01*
X57108662Y-91770200D02*
X54660800Y-91770200D01*
X60029662Y-79603600D02*
X58013600Y-81619662D01*
X65176400Y-79603600D02*
X60029662Y-79603600D01*
X78654200Y-77485800D02*
X79908400Y-78740000D01*
X58013600Y-90865262D02*
X57108662Y-91770200D01*
X51970749Y-89422100D02*
X51849249Y-89543600D01*
X58013600Y-81619662D02*
X58013600Y-90865262D01*
X67294200Y-77485800D02*
X78654200Y-77485800D01*
X52964500Y-89422100D02*
X51970749Y-89422100D01*
X51849249Y-89543600D02*
X48007600Y-89543600D01*
D25*
%TO.N,/AGND*%
X67310000Y-87630000D02*
X78740000Y-87630000D01*
X80010000Y-88900000D02*
X81280000Y-88900000D01*
X78740000Y-87630000D02*
X80010000Y-88900000D01*
X66040000Y-88900000D02*
X67310000Y-87630000D01*
%TO.N,/P2_20*%
X110490000Y-91440000D02*
X109220000Y-91440000D01*
X123190000Y-92710000D02*
X111760000Y-92710000D01*
X124460000Y-91440000D02*
X123190000Y-92710000D01*
X124460000Y-91440000D02*
X127125000Y-91440000D01*
X111760000Y-92710000D02*
X110490000Y-91440000D01*
%TO.N,/P2_2*%
X110490000Y-68580000D02*
X109220000Y-68580000D01*
X123190000Y-69850000D02*
X111760000Y-69850000D01*
X124460000Y-68580000D02*
X123190000Y-69850000D01*
X111760000Y-69850000D02*
X110490000Y-68580000D01*
X124460000Y-68580000D02*
X127125000Y-68580000D01*
%TO.N,/RESETn*%
X111760000Y-100330000D02*
X110490000Y-99060000D01*
X124460000Y-99060000D02*
X123190000Y-100330000D01*
X110490000Y-99060000D02*
X109220000Y-99060000D01*
X123190000Y-100330000D02*
X111760000Y-100330000D01*
%TO.N,/P2_30*%
X123190000Y-105410000D02*
X111760000Y-105410000D01*
X124460000Y-104140000D02*
X123190000Y-105410000D01*
X110490000Y-104140000D02*
X109220000Y-104140000D01*
X124460000Y-104140000D02*
X127125000Y-104140000D01*
X111760000Y-105410000D02*
X110490000Y-104140000D01*
%TO.N,/P2_8*%
X124460000Y-76200000D02*
X127125000Y-76200000D01*
X124460000Y-76200000D02*
X123190000Y-77470000D01*
X111760000Y-77470000D02*
X110490000Y-76200000D01*
X123190000Y-77470000D02*
X111760000Y-77470000D01*
X110490000Y-76200000D02*
X109220000Y-76200000D01*
%TO.N,/P2_22*%
X123190000Y-95250000D02*
X111760000Y-95250000D01*
X124460000Y-93980000D02*
X127125000Y-93980000D01*
X110490000Y-93980000D02*
X109220000Y-93980000D01*
X124460000Y-93980000D02*
X123190000Y-95250000D01*
X111760000Y-95250000D02*
X110490000Y-93980000D01*
%TO.N,/BAT_TEMP*%
X123190000Y-87630000D02*
X111760000Y-87630000D01*
X111760000Y-87630000D02*
X110490000Y-86360000D01*
X110490000Y-86360000D02*
X109220000Y-86360000D01*
X124460000Y-86360000D02*
X123190000Y-87630000D01*
%TO.N,/P2_36*%
X124460000Y-111760000D02*
X123190000Y-113030000D01*
X111760000Y-113030000D02*
X110490000Y-111760000D01*
X110490000Y-111760000D02*
X109220000Y-111760000D01*
X123190000Y-113030000D02*
X111760000Y-113030000D01*
X124460000Y-111760000D02*
X127125000Y-111760000D01*
%TO.N,/P2_10*%
X124460000Y-78740000D02*
X127125000Y-78740000D01*
X124460000Y-78740000D02*
X123190000Y-80010000D01*
X111760000Y-80010000D02*
X110490000Y-78740000D01*
X110490000Y-78740000D02*
X109220000Y-78740000D01*
X123190000Y-80010000D02*
X111760000Y-80010000D01*
%TO.N,/VIN_BAT*%
X110490000Y-83820000D02*
X109220000Y-83820000D01*
X124460000Y-83820000D02*
X123190000Y-85090000D01*
X123190000Y-85090000D02*
X111760000Y-85090000D01*
X111760000Y-85090000D02*
X110490000Y-83820000D01*
%TO.N,/P2_24*%
X111760000Y-97790000D02*
X110490000Y-96520000D01*
X124460000Y-96520000D02*
X127125000Y-96520000D01*
X123190000Y-97790000D02*
X111760000Y-97790000D01*
X124460000Y-96520000D02*
X123190000Y-97790000D01*
X110490000Y-96520000D02*
X109220000Y-96520000D01*
%TO.N,/P2_28*%
X124460000Y-101600000D02*
X123190000Y-102870000D01*
X123190000Y-102870000D02*
X111760000Y-102870000D01*
X124460000Y-101600000D02*
X127125000Y-101600000D01*
X111760000Y-102870000D02*
X110490000Y-101600000D01*
X110490000Y-101600000D02*
X109220000Y-101600000D01*
%TO.N,/P2_34*%
X123190000Y-110490000D02*
X111760000Y-110490000D01*
X110490000Y-109220000D02*
X109220000Y-109220000D01*
X124460000Y-109220000D02*
X127125000Y-109220000D01*
X124460000Y-109220000D02*
X123190000Y-110490000D01*
X111760000Y-110490000D02*
X110490000Y-109220000D01*
%TO.N,/P2_4*%
X110490000Y-71120000D02*
X109220000Y-71120000D01*
X124460000Y-71120000D02*
X127125000Y-71120000D01*
X123190000Y-72390000D02*
X111760000Y-72390000D01*
X124460000Y-71120000D02*
X123190000Y-72390000D01*
X111760000Y-72390000D02*
X110490000Y-71120000D01*
%TO.N,/PWR_BTN*%
X124460000Y-81280000D02*
X123190000Y-82550000D01*
X110490000Y-81280000D02*
X109220000Y-81280000D01*
X123190000Y-82550000D02*
X111760000Y-82550000D01*
X111760000Y-82550000D02*
X110490000Y-81280000D01*
%TO.N,/P2_18*%
X124460000Y-88900000D02*
X123190000Y-90170000D01*
X110490000Y-88900000D02*
X109220000Y-88900000D01*
X123190000Y-90170000D02*
X111760000Y-90170000D01*
X124460000Y-88900000D02*
X127125000Y-88900000D01*
X111760000Y-90170000D02*
X110490000Y-88900000D01*
%TO.N,/P2_6*%
X110490000Y-73660000D02*
X109220000Y-73660000D01*
X111760000Y-74930000D02*
X110490000Y-73660000D01*
X124460000Y-73660000D02*
X123190000Y-74930000D01*
X123190000Y-74930000D02*
X111760000Y-74930000D01*
X124460000Y-73660000D02*
X127125000Y-73660000D01*
%TO.N,/P2_32*%
X123190000Y-107950000D02*
X111760000Y-107950000D01*
X111760000Y-107950000D02*
X110490000Y-106680000D01*
X124460000Y-106680000D02*
X123190000Y-107950000D01*
X124460000Y-106680000D02*
X127125000Y-106680000D01*
X110490000Y-106680000D02*
X109220000Y-106680000D01*
%TO.N,/P2_3*%
X107830000Y-69970000D02*
X106680000Y-71120000D01*
X121920000Y-71120000D02*
X119505000Y-71120000D01*
X118870000Y-70485000D02*
X111125000Y-70485000D01*
X110610000Y-69970000D02*
X107830000Y-69970000D01*
X119505000Y-71120000D02*
X118870000Y-70485000D01*
X111125000Y-70485000D02*
X110610000Y-69970000D01*
%TO.N,/P2_17*%
X121920000Y-88900000D02*
X119505000Y-88900000D01*
X110610000Y-87750000D02*
X107830000Y-87750000D01*
X119505000Y-88900000D02*
X118870000Y-88265000D01*
X111125000Y-88265000D02*
X110610000Y-87750000D01*
X107830000Y-87750000D02*
X106680000Y-88900000D01*
X118870000Y-88265000D02*
X111125000Y-88265000D01*
%TO.N,/P2_35*%
X111125000Y-111125000D02*
X110610000Y-110610000D01*
X107830000Y-110610000D02*
X106680000Y-111760000D01*
X110610000Y-110610000D02*
X107830000Y-110610000D01*
X119505000Y-111760000D02*
X118870000Y-111125000D01*
X121920000Y-111760000D02*
X119505000Y-111760000D01*
X118870000Y-111125000D02*
X111125000Y-111125000D01*
%TO.N,/P2_1*%
X119505000Y-68580000D02*
X118870000Y-67945000D01*
X111125000Y-67945000D02*
X110610000Y-67430000D01*
X121920000Y-68580000D02*
X119505000Y-68580000D01*
X118870000Y-67945000D02*
X111125000Y-67945000D01*
X110610000Y-67430000D02*
X107830000Y-67430000D01*
X107830000Y-67430000D02*
X106680000Y-68580000D01*
%TO.N,/P2_33*%
X119505000Y-109220000D02*
X118870000Y-108585000D01*
X121920000Y-109220000D02*
X119505000Y-109220000D01*
X107830000Y-108070000D02*
X106680000Y-109220000D01*
X110610000Y-108070000D02*
X107830000Y-108070000D01*
X118870000Y-108585000D02*
X111125000Y-108585000D01*
X111125000Y-108585000D02*
X110610000Y-108070000D01*
%TO.N,/P2_25*%
X119505000Y-99060000D02*
X118870000Y-98425000D01*
X111125000Y-98425000D02*
X110610000Y-97910000D01*
X121920000Y-99060000D02*
X119505000Y-99060000D01*
X107830000Y-97910000D02*
X106680000Y-99060000D01*
X110610000Y-97910000D02*
X107830000Y-97910000D01*
X118870000Y-98425000D02*
X111125000Y-98425000D01*
%TO.N,/P2_27*%
X110610000Y-100450000D02*
X107830000Y-100450000D01*
X111125000Y-100965000D02*
X110610000Y-100450000D01*
X107830000Y-100450000D02*
X106680000Y-101600000D01*
X118870000Y-100965000D02*
X111125000Y-100965000D01*
X121920000Y-101600000D02*
X119505000Y-101600000D01*
X119505000Y-101600000D02*
X118870000Y-100965000D01*
%TO.N,/P2_11*%
X118870000Y-80645000D02*
X111125000Y-80645000D01*
X121920000Y-81280000D02*
X119505000Y-81280000D01*
X107830000Y-80130000D02*
X106680000Y-81280000D01*
X119505000Y-81280000D02*
X118870000Y-80645000D01*
X111125000Y-80645000D02*
X110610000Y-80130000D01*
X110610000Y-80130000D02*
X107830000Y-80130000D01*
%TO.N,/UART_RX*%
X119505000Y-73660000D02*
X118870000Y-73025000D01*
X118870000Y-73025000D02*
X111125000Y-73025000D01*
X111125000Y-73025000D02*
X110610000Y-72510000D01*
X107830000Y-72510000D02*
X106680000Y-73660000D01*
X110610000Y-72510000D02*
X107830000Y-72510000D01*
X121920000Y-73660000D02*
X119505000Y-73660000D01*
%TO.N,/P2_9*%
X119505000Y-78740000D02*
X118870000Y-78105000D01*
X111125000Y-78105000D02*
X110610000Y-77590000D01*
X110610000Y-77590000D02*
X107830000Y-77590000D01*
X121920000Y-78740000D02*
X119505000Y-78740000D01*
X107830000Y-77590000D02*
X106680000Y-78740000D01*
X118870000Y-78105000D02*
X111125000Y-78105000D01*
%TO.N,/UART_TX*%
X119505000Y-76200000D02*
X118870000Y-75565000D01*
X110610000Y-75050000D02*
X107830000Y-75050000D01*
X107830000Y-75050000D02*
X106680000Y-76200000D01*
X118870000Y-75565000D02*
X111125000Y-75565000D01*
X121920000Y-76200000D02*
X119505000Y-76200000D01*
X111125000Y-75565000D02*
X110610000Y-75050000D01*
%TO.N,/P2_19*%
X119505000Y-91440000D02*
X118870000Y-90805000D01*
X121920000Y-91440000D02*
X119505000Y-91440000D01*
X107830000Y-90290000D02*
X106680000Y-91440000D01*
X111125000Y-90805000D02*
X110610000Y-90290000D01*
X110610000Y-90290000D02*
X107830000Y-90290000D01*
X118870000Y-90805000D02*
X111125000Y-90805000D01*
%TO.N,/P2_29*%
X110610000Y-102990000D02*
X107830000Y-102990000D01*
X107830000Y-102990000D02*
X106680000Y-104140000D01*
X111125000Y-103505000D02*
X110610000Y-102990000D01*
X119505000Y-104140000D02*
X118870000Y-103505000D01*
X121920000Y-104140000D02*
X119505000Y-104140000D01*
X118870000Y-103505000D02*
X111125000Y-103505000D01*
%TO.N,/P2_31*%
X107830000Y-105530000D02*
X106680000Y-106680000D01*
X118870000Y-106045000D02*
X111125000Y-106045000D01*
X110610000Y-105530000D02*
X107830000Y-105530000D01*
X111125000Y-106045000D02*
X110610000Y-105530000D01*
X121920000Y-106680000D02*
X119505000Y-106680000D01*
X119505000Y-106680000D02*
X118870000Y-106045000D01*
%TO.N,Net-(D1-A)*%
X62605000Y-68580000D02*
X61085000Y-68580000D01*
%TO.N,GND*%
X130635000Y-88900000D02*
X131826000Y-88900000D01*
D29*
X55304400Y-89357200D02*
X55239500Y-89422100D01*
D25*
X115995000Y-109220000D02*
X114808000Y-109220000D01*
X115995000Y-71120000D02*
X114808000Y-71120000D01*
D29*
X55239500Y-89422100D02*
X56678700Y-89422100D01*
X52984400Y-84873800D02*
X52984400Y-83972400D01*
D25*
X130635000Y-106680000D02*
X131826000Y-106680000D01*
X60115000Y-96520000D02*
X58928000Y-96520000D01*
X74755000Y-76200000D02*
X75946000Y-76200000D01*
X115995000Y-76200000D02*
X114808000Y-76200000D01*
X74755000Y-73660000D02*
X75946000Y-73660000D01*
X115995000Y-96520000D02*
X114808000Y-96520000D01*
D29*
X56743600Y-89337850D02*
X56743600Y-89357200D01*
X46253500Y-80264000D02*
X47244000Y-80264000D01*
D25*
X115995000Y-78740000D02*
X114808000Y-78740000D01*
X60115000Y-99060000D02*
X58928000Y-99060000D01*
X115995000Y-101600000D02*
X114808000Y-101600000D01*
X60115000Y-111760000D02*
X58928000Y-111760000D01*
X130635000Y-68580000D02*
X131826000Y-68580000D01*
X74755000Y-99060000D02*
X75946000Y-99060000D01*
X115995000Y-73660000D02*
X114808000Y-73660000D01*
X60115000Y-109220000D02*
X58928000Y-109220000D01*
X130635000Y-96520000D02*
X131826000Y-96520000D01*
X130635000Y-104140000D02*
X131826000Y-104140000D01*
X60115000Y-93980000D02*
X58928000Y-93980000D01*
X115995000Y-83820000D02*
X114808000Y-83820000D01*
X115995000Y-81280000D02*
X114808000Y-81280000D01*
X74755000Y-71120000D02*
X75946000Y-71120000D01*
X115995000Y-99060000D02*
X114808000Y-99060000D01*
X74755000Y-81280000D02*
X75946000Y-81280000D01*
X115995000Y-88900000D02*
X114808000Y-88900000D01*
X74755000Y-78740000D02*
X75946000Y-78740000D01*
D29*
X56642000Y-89236250D02*
X56743600Y-89337850D01*
D25*
X115995000Y-104140000D02*
X114808000Y-104140000D01*
X115995000Y-106680000D02*
X114808000Y-106680000D01*
X130635000Y-76200000D02*
X131826000Y-76200000D01*
X130635000Y-71120000D02*
X131826000Y-71120000D01*
X74755000Y-68580000D02*
X75946000Y-68580000D01*
X74755000Y-101600000D02*
X75946000Y-101600000D01*
X74755000Y-96520000D02*
X75946000Y-96520000D01*
X60115000Y-106680000D02*
X58928000Y-106680000D01*
X130635000Y-93980000D02*
X131826000Y-93980000D01*
X115995000Y-91440000D02*
X114808000Y-91440000D01*
X60115000Y-68580000D02*
X58928000Y-68580000D01*
X130635000Y-91440000D02*
X131826000Y-91440000D01*
D29*
X56642000Y-88392000D02*
X56642000Y-89236250D01*
D25*
X74755000Y-91440000D02*
X75946000Y-91440000D01*
X60115000Y-92373000D02*
X60115000Y-91440000D01*
X74755000Y-88900000D02*
X75946000Y-88900000D01*
X115995000Y-68580000D02*
X114808000Y-68580000D01*
D29*
X56678700Y-89422100D02*
X56743600Y-89357200D01*
D25*
X74755000Y-109220000D02*
X75946000Y-109220000D01*
X74755000Y-104140000D02*
X75946000Y-104140000D01*
X130635000Y-109220000D02*
X131826000Y-109220000D01*
X130635000Y-101600000D02*
X131826000Y-101600000D01*
X60115000Y-104140000D02*
X58928000Y-104140000D01*
X74755000Y-111760000D02*
X75946000Y-111760000D01*
X115995000Y-111760000D02*
X114808000Y-111760000D01*
X74755000Y-106680000D02*
X75946000Y-106680000D01*
X60115000Y-101600000D02*
X58928000Y-101600000D01*
X130635000Y-73660000D02*
X131826000Y-73660000D01*
X130635000Y-111760000D02*
X131826000Y-111760000D01*
X130635000Y-78740000D02*
X131826000Y-78740000D01*
X74755000Y-83820000D02*
X75946000Y-83820000D01*
D29*
X55219600Y-84023200D02*
X55219600Y-84873800D01*
X56743600Y-89357200D02*
X55304400Y-89357200D01*
D25*
X59944000Y-83820000D02*
X59944000Y-84836000D01*
%TO.N,Net-(J7-VBUS)*%
X51155700Y-84886700D02*
X51130200Y-84886700D01*
X51308000Y-84734400D02*
X51155700Y-84886700D01*
D26*
X47414000Y-85224800D02*
X47777500Y-84861300D01*
X47414000Y-86450000D02*
X47414000Y-85224800D01*
X47777500Y-84861300D02*
X51130200Y-84861300D01*
D25*
%TO.N,Net-(D10-A)*%
X62605000Y-91440000D02*
X61085000Y-91440000D01*
%TO.N,Net-(D11-A)*%
X62605000Y-93980000D02*
X61085000Y-93980000D01*
%TO.N,Net-(D12-A)*%
X62605000Y-96520000D02*
X61085000Y-96520000D01*
%TO.N,Net-(D13-A)*%
X62605000Y-99060000D02*
X61085000Y-99060000D01*
%TO.N,Net-(D14-A)*%
X62605000Y-101600000D02*
X61085000Y-101600000D01*
%TO.N,Net-(D15-A)*%
X62605000Y-104140000D02*
X61085000Y-104140000D01*
%TO.N,Net-(D16-A)*%
X62605000Y-106680000D02*
X61085000Y-106680000D01*
%TO.N,Net-(D17-A)*%
X62605000Y-109220000D02*
X61085000Y-109220000D01*
%TO.N,Net-(D18-A)*%
X62605000Y-111760000D02*
X61085000Y-111760000D01*
%TO.N,Net-(D19-A)*%
X118485000Y-68580000D02*
X116965000Y-68580000D01*
%TO.N,Net-(D20-A)*%
X118485000Y-71120000D02*
X116965000Y-71120000D01*
%TO.N,Net-(D21-A)*%
X118485000Y-73660000D02*
X116965000Y-73660000D01*
%TO.N,Net-(D22-A)*%
X118485000Y-76200000D02*
X116965000Y-76200000D01*
%TO.N,Net-(D23-A)*%
X118485000Y-78740000D02*
X116965000Y-78740000D01*
%TO.N,Net-(D24-A)*%
X118485000Y-81280000D02*
X116965000Y-81280000D01*
%TO.N,Net-(D25-A)*%
X118485000Y-83820000D02*
X116965000Y-83820000D01*
%TO.N,Net-(D27-A)*%
X118485000Y-88900000D02*
X116965000Y-88900000D01*
%TO.N,Net-(D28-A)*%
X118485000Y-91440000D02*
X116965000Y-91440000D01*
%TO.N,Net-(D30-A)*%
X118485000Y-96520000D02*
X116965000Y-96520000D01*
%TO.N,Net-(D31-A)*%
X118485000Y-99060000D02*
X116965000Y-99060000D01*
%TO.N,Net-(D32-A)*%
X118485000Y-101600000D02*
X116965000Y-101600000D01*
%TO.N,Net-(D33-A)*%
X118485000Y-104140000D02*
X116965000Y-104140000D01*
%TO.N,Net-(D34-A)*%
X118485000Y-106680000D02*
X116965000Y-106680000D01*
%TO.N,Net-(D35-A)*%
X118485000Y-109220000D02*
X116965000Y-109220000D01*
%TO.N,Net-(D36-A)*%
X118485000Y-111760000D02*
X116965000Y-111760000D01*
%TO.N,Net-(D37-A)*%
X73785000Y-68580000D02*
X72265000Y-68580000D01*
%TO.N,Net-(D38-A)*%
X73785000Y-71120000D02*
X72265000Y-71120000D01*
%TO.N,Net-(D39-A)*%
X73785000Y-73660000D02*
X72265000Y-73660000D01*
%TO.N,Net-(D40-A)*%
X73785000Y-76200000D02*
X72265000Y-76200000D01*
%TO.N,Net-(D41-A)*%
X73785000Y-78740000D02*
X72265000Y-78740000D01*
%TO.N,Net-(D42-A)*%
X73785000Y-81280000D02*
X72265000Y-81280000D01*
%TO.N,Net-(D43-A)*%
X73785000Y-83820000D02*
X72265000Y-83820000D01*
%TO.N,Net-(D45-A)*%
X73785000Y-88900000D02*
X72265000Y-88900000D01*
%TO.N,Net-(D46-A)*%
X73785000Y-91440000D02*
X72265000Y-91440000D01*
%TO.N,Net-(D48-A)*%
X73785000Y-96520000D02*
X72265000Y-96520000D01*
%TO.N,Net-(D49-A)*%
X73785000Y-99060000D02*
X72265000Y-99060000D01*
%TO.N,Net-(D50-A)*%
X73785000Y-101600000D02*
X72265000Y-101600000D01*
%TO.N,Net-(D51-A)*%
X73785000Y-104140000D02*
X72265000Y-104140000D01*
%TO.N,Net-(D52-A)*%
X73785000Y-106680000D02*
X72265000Y-106680000D01*
%TO.N,Net-(D53-A)*%
X73785000Y-109220000D02*
X72265000Y-109220000D01*
%TO.N,Net-(D54-A)*%
X73785000Y-111760000D02*
X72265000Y-111760000D01*
%TO.N,Net-(D55-A)*%
X128145000Y-68580000D02*
X129665000Y-68580000D01*
%TO.N,Net-(D56-A)*%
X128145000Y-71120000D02*
X129665000Y-71120000D01*
%TO.N,Net-(D57-A)*%
X128145000Y-73660000D02*
X129665000Y-73660000D01*
%TO.N,Net-(D58-A)*%
X128145000Y-76200000D02*
X129665000Y-76200000D01*
%TO.N,Net-(D59-A)*%
X128145000Y-78740000D02*
X129665000Y-78740000D01*
%TO.N,Net-(D63-A)*%
X128145000Y-88900000D02*
X129665000Y-88900000D01*
%TO.N,Net-(D64-A)*%
X128145000Y-91440000D02*
X129665000Y-91440000D01*
%TO.N,Net-(D65-A)*%
X128145000Y-93980000D02*
X129665000Y-93980000D01*
%TO.N,Net-(D66-A)*%
X128145000Y-96520000D02*
X129665000Y-96520000D01*
%TO.N,Net-(D68-A)*%
X128145000Y-101600000D02*
X129665000Y-101600000D01*
%TO.N,Net-(D69-A)*%
X128145000Y-104140000D02*
X129665000Y-104140000D01*
%TO.N,Net-(D70-A)*%
X128145000Y-106680000D02*
X129665000Y-106680000D01*
%TO.N,Net-(D71-A)*%
X128145000Y-109220000D02*
X129665000Y-109220000D01*
%TO.N,Net-(D72-A)*%
X128145000Y-111760000D02*
X129665000Y-111760000D01*
%TO.N,/3P3V_1*%
X118870000Y-95885000D02*
X111125000Y-95885000D01*
X121920000Y-96520000D02*
X119505000Y-96520000D01*
X110610000Y-95370000D02*
X107830000Y-95370000D01*
X119505000Y-96520000D02*
X118870000Y-95885000D01*
X111125000Y-95885000D02*
X110610000Y-95370000D01*
X107830000Y-95370000D02*
X106680000Y-96520000D01*
%TO.N,Net-(D2-A)*%
X60914000Y-83820000D02*
X62480000Y-83820000D01*
%TO.N,/P1_13*%
X66040000Y-83820000D02*
X63625000Y-83820000D01*
X79756000Y-83820000D02*
X81280000Y-83820000D01*
X78605000Y-82669000D02*
X79756000Y-83820000D01*
X67191000Y-82669000D02*
X78605000Y-82669000D01*
X66040000Y-83820000D02*
X67191000Y-82669000D01*
%TD*%
M02*
