M48
; DRILL file {KiCad 9.0.0+dfsg-1} date 2025-04-08T21:11:33-0500
; FORMAT={-:-/ absolute / metric / decimal}
; #@! TF.CreationDate,2025-04-08T21:11:33-05:00
; #@! TF.GenerationSoftware,Kicad,Pcbnew,9.0.0+dfsg-1
; #@! TF.FileFunction,Plated,1,2,PTH
FMAT,2
METRIC
; #@! TA.AperFunction,Plated,PTH,ViaDrill
T1C0.300
; #@! TA.AperFunction,Plated,PTH,ComponentDrill
T2C0.950
; #@! TA.AperFunction,Plated,PTH,ComponentDrill
T3C1.000
; #@! TA.AperFunction,Plated,PTH,ComponentDrill
T4C2.300
%
G90
G05
T1
X47.244Y-80.264
X52.984Y-83.972
X54.077Y-73.66
X55.22Y-84.023
X56.642Y-88.392
X58.928Y-68.58
X58.928Y-93.98
X58.928Y-96.52
X58.928Y-99.06
X58.928Y-101.6
X58.928Y-104.14
X58.928Y-106.68
X58.928Y-109.22
X58.928Y-111.76
X59.944Y-84.836
X60.115Y-92.373
X75.946Y-68.58
X75.946Y-71.12
X75.946Y-73.66
X75.946Y-76.2
X75.946Y-78.74
X75.946Y-81.28
X75.946Y-83.82
X75.946Y-88.9
X75.946Y-91.44
X75.946Y-96.52
X75.946Y-99.06
X75.946Y-101.6
X75.946Y-104.14
X75.946Y-106.68
X75.946Y-109.22
X75.946Y-111.76
X114.808Y-68.58
X114.808Y-71.12
X114.808Y-73.66
X114.808Y-76.2
X114.808Y-78.74
X114.808Y-81.28
X114.808Y-83.82
X114.808Y-88.9
X114.808Y-91.44
X114.808Y-96.52
X114.808Y-99.06
X114.808Y-101.6
X114.808Y-104.14
X114.808Y-106.68
X114.808Y-109.22
X114.808Y-111.76
X131.826Y-68.58
X131.826Y-71.12
X131.826Y-73.66
X131.826Y-76.2
X131.826Y-78.74
X131.826Y-88.9
X131.826Y-91.44
X131.826Y-93.98
X131.826Y-96.52
X131.826Y-101.6
X131.826Y-104.14
X131.826Y-106.68
X131.826Y-109.22
X131.826Y-111.76
T2
X47.414Y-86.45
X47.414Y-88.95
X47.414Y-90.95
X47.414Y-93.45
T3
X66.04Y-68.58
X66.04Y-71.12
X66.04Y-73.66
X66.04Y-76.2
X66.04Y-78.74
X66.04Y-81.28
X66.04Y-83.82
X66.04Y-86.36
X66.04Y-88.9
X66.04Y-91.44
X66.04Y-93.98
X66.04Y-96.52
X66.04Y-99.06
X66.04Y-101.6
X66.04Y-104.14
X66.04Y-106.68
X66.04Y-109.22
X66.04Y-111.76
X68.58Y-68.58
X68.58Y-71.12
X68.58Y-73.66
X68.58Y-76.2
X68.58Y-78.74
X68.58Y-81.28
X68.58Y-83.82
X68.58Y-86.36
X68.58Y-88.9
X68.58Y-91.44
X68.58Y-93.98
X68.58Y-96.52
X68.58Y-99.06
X68.58Y-101.6
X68.58Y-104.14
X68.58Y-106.68
X68.58Y-109.22
X68.58Y-111.76
X81.28Y-68.58
X81.28Y-71.12
X81.28Y-73.66
X81.28Y-76.2
X81.28Y-78.74
X81.28Y-81.28
X81.28Y-83.82
X81.28Y-86.36
X81.28Y-88.9
X81.28Y-91.44
X81.28Y-93.98
X81.28Y-96.52
X81.28Y-99.06
X81.28Y-101.6
X81.28Y-104.14
X81.28Y-106.68
X81.28Y-109.22
X81.28Y-111.76
X83.82Y-68.58
X83.82Y-71.12
X83.82Y-73.66
X83.82Y-76.2
X83.82Y-78.74
X83.82Y-81.28
X83.82Y-83.82
X83.82Y-86.36
X83.82Y-88.9
X83.82Y-91.44
X83.82Y-93.98
X83.82Y-96.52
X83.82Y-99.06
X83.82Y-101.6
X83.82Y-104.14
X83.82Y-106.68
X83.82Y-109.22
X83.82Y-111.76
X106.68Y-68.58
X106.68Y-71.12
X106.68Y-73.66
X106.68Y-76.2
X106.68Y-78.74
X106.68Y-81.28
X106.68Y-83.82
X106.68Y-86.36
X106.68Y-88.9
X106.68Y-91.44
X106.68Y-93.98
X106.68Y-96.52
X106.68Y-99.06
X106.68Y-101.6
X106.68Y-104.14
X106.68Y-106.68
X106.68Y-109.22
X106.68Y-111.76
X109.22Y-68.58
X109.22Y-71.12
X109.22Y-73.66
X109.22Y-76.2
X109.22Y-78.74
X109.22Y-81.28
X109.22Y-83.82
X109.22Y-86.36
X109.22Y-88.9
X109.22Y-91.44
X109.22Y-93.98
X109.22Y-96.52
X109.22Y-99.06
X109.22Y-101.6
X109.22Y-104.14
X109.22Y-106.68
X109.22Y-109.22
X109.22Y-111.76
X121.92Y-68.58
X121.92Y-71.12
X121.92Y-73.66
X121.92Y-76.2
X121.92Y-78.74
X121.92Y-81.28
X121.92Y-83.82
X121.92Y-86.36
X121.92Y-88.9
X121.92Y-91.44
X121.92Y-93.98
X121.92Y-96.52
X121.92Y-99.06
X121.92Y-101.6
X121.92Y-104.14
X121.92Y-106.68
X121.92Y-109.22
X121.92Y-111.76
X124.46Y-68.58
X124.46Y-71.12
X124.46Y-73.66
X124.46Y-76.2
X124.46Y-78.74
X124.46Y-81.28
X124.46Y-83.82
X124.46Y-86.36
X124.46Y-88.9
X124.46Y-91.44
X124.46Y-93.98
X124.46Y-96.52
X124.46Y-99.06
X124.46Y-101.6
X124.46Y-104.14
X124.46Y-106.68
X124.46Y-109.22
X124.46Y-111.76
T4
X44.704Y-83.38
X44.704Y-96.52
M30
